<?xml version="1.0" encoding="utf-8"?>
<!-- Generator: Adobe Illustrator 22.0.1, SVG Export Plug-In . SVG Version: 6.00 Build 0)  -->
<svg version="1.1" id="Layer_1" xmlns="http://www.w3.org/2000/svg" xmlns:xlink="http://www.w3.org/1999/xlink" x="0px" y="0px"
	 viewBox="0 0 18.4 13.3" style="enable-background:new 0 0 18.4 13.3;" xml:space="preserve">
<style type="text/css">
	.st0{fill:#99258D;stroke:#99258D;stroke-width:0.25;stroke-miterlimit:10;}
</style>
<path class="st0" d="M9.1,2.5c0-0.2,0.3-0.2,0.3,0v5.9L11,6.9c0.2-0.2,0.4,0,0.2,0.2L9.3,8.9C9.2,9,9.2,9,9.1,8.9L7.2,7.1
	C7.1,6.9,7.3,6.7,7.4,6.9L9,8.5L9.1,2.5z"/>
<path class="st0" d="M11,9.7H7.3c-0.1,0-0.2-0.1-0.2-0.2l0,0c0-0.1,0.1-0.2,0.2-0.2H11c0.1,0,0.2,0.1,0.2,0.2l0,0
	C11.2,9.7,11.1,9.7,11,9.7z"/>
</svg>
