<?xml version="1.0" encoding="utf-8"?>
<!-- Generator: Adobe Illustrator 22.0.1, SVG Export Plug-In . SVG Version: 6.00 Build 0)  -->
<svg version="1.1" id="Layer_1" xmlns="http://www.w3.org/2000/svg" xmlns:xlink="http://www.w3.org/1999/xlink" x="0px" y="0px"
	 viewBox="0 0 76.6 65.2" style="enable-background:new 0 0 76.6 65.2;" xml:space="preserve">
<style type="text/css">
	.st0{fill:none;stroke:#99258D;stroke-miterlimit:10;}
	.st1{fill:#99258D;}
	.st2{fill:none;}
	.st3{font-family:'MuseoSans-700';}
	.st4{font-size:3px;}
</style>
<g>
	<path class="st0" d="M47,34.1H29.6c-1.7,0-3.1-1.4-3.1-3.1V19.7c0-1.7,1.4-3.1,3.1-3.1H47c1.7,0,3.1,1.4,3.1,3.1V31
		C50.1,32.7,48.7,34.1,47,34.1z"/>
</g>
<g>
	<circle class="st1" cx="38.4" cy="21" r="2.9"/>
	<path class="st1" d="M33.5,28.9h9.6c-0.1-2.9-1.3-4.6-4.9-4.6C34.9,24.2,33.4,26,33.5,28.9z"/>
</g>
<rect x="32.5" y="30.2" class="st2" width="14.1" height="3.7"/>
<text transform="matrix(1 0 0 1 34.7471 32.4917)" class="st1 st3 st4">Zaira</text>
</svg>
